<svg version="1.1" id="Layer_1" xmlns="http://www.w3.org/2000/svg" xmlns:xlink="http://www.w3.org/1999/xlink" x="0px" y="0px"
	 width="100%" viewBox="0 0 192 192" enable-background="new 0 0 192 192" xml:space="preserve">
<path fill="#0F0F0F" opacity="1.000000" stroke="none" 
	d="
M134.000000,193.000000 
	C89.362099,193.000000 45.224205,193.000000 1.043153,193.000000 
	C1.043153,129.070480 1.043153,65.140923 1.043153,1.105683 
	C64.887703,1.105683 128.775635,1.105683 192.831787,1.105683 
	C192.831787,64.999634 192.831787,128.999786 192.831787,193.000000 
	C173.474533,193.000000 153.987274,193.000000 134.000000,193.000000 
M77.819855,129.758499 
	C78.393677,130.244629 78.967499,130.730759 79.864700,131.818771 
	C82.263588,134.149033 84.662468,136.479294 87.301682,139.349823 
	C88.044823,139.980682 88.787956,140.611557 89.814522,141.818848 
	C91.017159,142.970688 92.219795,144.122528 93.922897,145.962219 
	C97.607819,146.327103 101.292740,146.691986 105.755882,147.267578 
	C109.898033,147.267578 114.040192,147.267578 119.521561,147.267578 
	C116.244240,144.213806 114.091301,142.207733 111.597458,139.623077 
	C110.147476,138.240082 108.697502,136.857071 107.006485,134.945343 
	C106.280212,134.314835 105.553940,133.684311 104.577873,132.492096 
	C103.664169,131.674561 102.750458,130.857025 101.565155,129.445999 
	C99.033279,127.010536 96.501396,124.575081 93.690727,121.587692 
	C92.783829,120.774635 91.876923,119.961578 90.729980,118.648041 
	C90.429832,118.441948 90.129692,118.235847 89.614738,117.478172 
	C88.605499,116.558578 87.596260,115.638985 86.146568,114.206352 
	C84.754959,112.847046 83.363342,111.487732 81.718826,109.559853 
	C80.808067,108.743607 79.897308,107.927361 78.729851,106.540375 
	C77.809761,105.722107 76.889671,104.903839 75.694435,103.477776 
	C73.804848,101.320457 71.915260,99.163139 70.600861,96.672264 
	C73.950645,93.174706 77.300430,89.677147 81.218742,85.922104 
	C84.035622,82.945496 86.852501,79.968887 90.084351,76.440872 
	C92.427963,73.974724 94.771576,71.508568 97.728600,68.801804 
	C99.480934,67.086250 101.233276,65.370697 103.581505,63.429382 
	C108.508682,58.440643 113.435860,53.451904 119.265480,47.549446 
	C116.867050,47.669170 115.934387,47.715729 114.241119,47.494526 
	C110.855713,47.558151 107.470306,47.621777 103.235641,47.403915 
	C100.112747,47.880249 96.420502,47.477341 94.002876,49.042839 
	C90.538147,51.286377 88.003899,54.966869 84.485588,58.354546 
	C80.013985,62.965740 75.542389,67.576935 70.476204,72.464005 
	C66.834404,76.252403 63.192600,80.040802 58.978493,84.114357 
	C56.522976,86.695747 54.067459,89.277138 51.044727,92.110977 
	C49.684273,93.608170 48.323818,95.105362 46.381344,96.910744 
	C46.579304,97.395218 46.777260,97.879684 46.981369,98.370468 
	C46.981369,98.370468 46.951180,98.388779 47.251545,99.027229 
	C48.444778,100.129929 49.638012,101.232620 51.033833,102.887032 
	C51.913754,103.645203 52.793674,104.403374 53.937691,105.787804 
	C56.496628,108.247650 59.055561,110.707489 61.881668,113.751404 
	C63.120819,114.900337 64.359970,116.049271 65.827896,117.724159 
	C66.408226,118.203827 66.988548,118.683495 67.858139,119.735344 
	C69.097931,120.876129 70.337730,122.016907 71.818512,123.724800 
	C72.720963,124.542313 73.623405,125.359833 74.807266,126.741028 
	C75.734436,127.571877 76.661606,128.402725 77.819855,129.758499 
M128.308502,83.807068 
	C119.959297,83.060646 114.322052,86.707924 112.253967,94.504036 
	C112.226448,96.002289 112.198936,97.500549 112.075714,99.639961 
	C112.399193,100.427078 112.722672,101.214188 113.038788,102.688133 
	C114.365273,104.416092 115.691750,106.144051 117.271660,108.372383 
	C117.756821,108.626060 118.241989,108.879738 119.192177,109.699715 
	C129.797974,113.907806 138.318512,109.047798 139.863663,97.306320 
	C139.592804,96.202278 139.321945,95.098236 139.066345,93.294563 
	C138.033066,91.596245 136.999786,89.897934 135.695541,87.613823 
	C134.813171,87.042992 133.930801,86.472160 132.677078,85.347076 
	C131.441711,84.938026 130.206329,84.528969 128.308502,83.807068 
z"/>
<path fill="#C601F2" opacity="1.000000" stroke="none" 
	d="
M115.001724,47.762287 
	C115.934387,47.715729 116.867050,47.669170 119.265480,47.549446 
	C113.435860,53.451904 108.508682,58.440643 103.147919,63.264091 
	C101.391785,63.126099 99.809250,62.687016 98.788651,63.255959 
	C91.866821,67.114548 85.182686,71.410477 78.185982,75.120468 
	C72.136017,78.328453 65.774559,80.948982 59.550797,83.829201 
	C63.192600,80.040802 66.834404,76.252403 71.048660,72.497345 
	C73.764854,71.841980 76.096558,71.488350 78.020981,70.408730 
	C88.429131,64.569672 98.771637,58.610493 109.050156,52.545925 
	C111.219589,51.265903 113.027328,49.372868 115.001724,47.762287 
z"/>
<path fill="#BD01F5" opacity="1.000000" stroke="none" 
	d="
M114.621422,47.628407 
	C113.027328,49.372868 111.219589,51.265903 109.050156,52.545925 
	C98.771637,58.610493 88.429131,64.569672 78.020981,70.408730 
	C76.096558,71.488350 73.764854,71.841980 71.345963,72.359406 
	C75.542389,67.576935 80.013985,62.965740 85.175148,58.185017 
	C93.139336,56.690853 98.826508,52.566265 104.084900,47.685402 
	C107.470306,47.621777 110.855713,47.558151 114.621422,47.628407 
z"/>
<path fill="#F300EC" opacity="1.000000" stroke="none" 
	d="
M61.614498,113.167328 
	C59.055561,110.707489 56.496628,108.247650 54.137432,105.317635 
	C59.566677,102.233582 64.796181,99.619698 70.025681,97.005814 
	C71.915260,99.163139 73.804848,101.320457 75.652908,104.062538 
	C70.945755,107.487312 66.280128,110.327324 61.614498,113.167328 
z"/>
<path fill="#D300F6" opacity="1.000000" stroke="none" 
	d="
M59.264645,83.971779 
	C65.774559,80.948982 72.136017,78.328453 78.185982,75.120468 
	C85.182686,71.410477 91.866821,67.114548 98.788651,63.255959 
	C99.809250,62.687016 101.391785,63.126099 102.849968,63.376976 
	C101.233276,65.370697 99.480934,67.086250 97.041290,68.932266 
	C94.803833,69.595787 93.125992,69.904030 91.724968,70.699692 
	C84.539520,74.780457 77.538788,79.199585 70.251060,83.083046 
	C64.198067,86.308556 57.836704,88.955368 51.611942,91.858528 
	C54.067459,89.277138 56.522976,86.695747 59.264645,83.971779 
z"/>
<path fill="#DB01EE" opacity="1.000000" stroke="none" 
	d="
M50.831249,102.335312 
	C49.638012,101.232620 48.444778,100.129929 47.541031,98.629059 
	C49.392231,97.702477 51.092426,97.414177 52.493015,96.606384 
	C61.110279,91.636353 69.572357,86.390762 78.274445,81.577415 
	C81.830246,79.610596 85.856926,78.495094 89.669388,76.992287 
	C86.852501,79.968887 84.035622,82.945496 80.517815,86.031036 
	C72.819687,89.682770 65.761780,93.112564 58.854584,96.822914 
	C56.013042,98.349312 53.495934,100.479675 50.831249,102.335312 
z"/>
<path fill="#D900F5" opacity="1.000000" stroke="none" 
	d="
M89.876869,76.716583 
	C85.856926,78.495094 81.830246,79.610596 78.274445,81.577415 
	C69.572357,86.390762 61.110279,91.636353 52.493015,96.606384 
	C51.092426,97.414177 49.392231,97.702477 47.390850,98.309837 
	C46.951180,98.388779 46.981369,98.370468 46.982697,97.925453 
	C46.977139,97.187805 46.970249,96.895172 46.963364,96.602554 
	C48.323818,95.105362 49.684273,93.608170 51.328335,91.984756 
	C57.836704,88.955368 64.198067,86.308556 70.251060,83.083046 
	C77.538788,79.199585 84.539520,74.780457 91.724968,70.699692 
	C93.125992,69.904030 94.803833,69.595787 96.734589,69.052567 
	C94.771576,71.508568 92.427963,73.974724 89.876869,76.716583 
z"/>
<path fill="#7701F3" opacity="1.000000" stroke="none" 
	d="
M93.969513,122.139626 
	C96.501396,124.575081 99.033279,127.010536 101.344849,129.759430 
	C96.436806,132.985077 91.749084,135.897324 87.061356,138.809555 
	C84.662468,136.479294 82.263588,134.149033 80.099289,131.458969 
	C84.879089,128.112656 89.424301,125.126137 93.969513,122.139626 
z"/>
<path fill="#E601ED" opacity="1.000000" stroke="none" 
	d="
M50.932541,102.611176 
	C53.495934,100.479675 56.013042,98.349312 58.854584,96.822914 
	C65.761780,93.112564 72.819687,89.682770 80.233551,86.159775 
	C77.300430,89.677147 73.950645,93.174706 70.313271,96.839043 
	C64.796181,99.619698 59.566677,102.233582 54.005386,105.004501 
	C52.793674,104.403374 51.913754,103.645203 50.932541,102.611176 
z"/>
<path fill="#7701F3" opacity="1.000000" stroke="none" 
	d="
M139.718246,97.991913 
	C138.318512,109.047798 129.797974,113.907806 119.319580,109.326462 
	C126.204063,105.299454 132.961151,101.645683 139.718246,97.991913 
z"/>
<path fill="#9A01F6" opacity="1.000000" stroke="none" 
	d="
M135.966507,88.199615 
	C136.999786,89.897934 138.033066,91.596245 138.703033,93.710159 
	C132.068634,97.527313 125.749817,100.846016 119.569611,104.405403 
	C118.431236,105.061028 117.854301,106.691490 117.018234,107.872009 
	C115.691750,106.144051 114.365273,104.416092 113.428894,102.339111 
	C120.972603,98.163658 128.142929,94.367523 135.244141,90.446228 
	C135.745560,90.169342 135.737610,88.970009 135.966507,88.199615 
z"/>
<path fill="#AC00F6" opacity="1.000000" stroke="none" 
	d="
M135.831024,87.906723 
	C135.737610,88.970009 135.745560,90.169342 135.244141,90.446228 
	C128.142929,94.367523 120.972603,98.163658 113.432579,101.995697 
	C112.722672,101.214188 112.399193,100.427078 112.461876,99.246628 
	C116.796585,96.745674 120.875008,94.844238 124.652351,92.464828 
	C127.642654,90.581192 130.263519,88.111038 133.048431,85.901321 
	C133.930801,86.472160 134.813171,87.042992 135.831024,87.906723 
z"/>
<path fill="#8A01F7" opacity="1.000000" stroke="none" 
	d="
M117.144943,108.122192 
	C117.854301,106.691490 118.431236,105.061028 119.569611,104.405403 
	C125.749817,100.846016 132.068634,97.527313 138.695404,94.059967 
	C139.321945,95.098236 139.592804,96.202278 139.790955,97.649124 
	C132.961151,101.645683 126.204063,105.299454 119.087067,109.043320 
	C118.241989,108.879738 117.756821,108.626060 117.144943,108.122192 
z"/>
<path fill="#9700FB" opacity="1.000000" stroke="none" 
	d="
M107.247528,135.474075 
	C108.697502,136.857071 110.147476,138.240082 111.669937,140.217667 
	C109.487495,142.893799 107.232582,144.975342 104.977661,147.056885 
	C101.292740,146.691986 97.607819,146.327103 94.013000,145.441742 
	C98.484581,141.772217 102.866051,138.623154 107.247528,135.474075 
z"/>
<path fill="#BD01F5" opacity="1.000000" stroke="none" 
	d="
M132.862762,85.624199 
	C130.263519,88.111038 127.642654,90.581192 124.652351,92.464828 
	C120.875008,94.844238 116.796585,96.745674 112.509727,98.926041 
	C112.198936,97.500549 112.226448,96.002289 112.853058,94.168823 
	C118.625076,90.595711 123.798019,87.357811 128.970963,84.119919 
	C130.206329,84.528969 131.441711,84.938026 132.862762,85.624199 
z"/>
<path fill="#8A01F7" opacity="1.000000" stroke="none" 
	d="
M107.127007,135.209717 
	C102.866051,138.623154 98.484581,141.772217 93.762772,145.097809 
	C92.219795,144.122528 91.017159,142.970688 90.018005,141.364929 
	C95.090210,138.291946 99.958939,135.672882 104.827660,133.053802 
	C105.553940,133.684311 106.280212,134.314835 107.127007,135.209717 
z"/>
<path fill="#DB01EE" opacity="1.000000" stroke="none" 
	d="
M61.748085,113.459366 
	C66.280128,110.327324 70.945755,107.487312 75.790482,104.366440 
	C76.889671,104.903839 77.809761,105.722107 78.779472,107.153534 
	C74.419106,110.910538 70.009109,114.054367 65.599121,117.198204 
	C64.359970,116.049271 63.120819,114.900337 61.748085,113.459366 
z"/>
<path fill="#A002DC" opacity="1.000000" stroke="none" 
	d="
M103.660271,47.544659 
	C98.826508,52.566265 93.139336,56.690853 85.468536,58.024666 
	C88.003899,54.966869 90.538147,51.286377 94.002876,49.042839 
	C96.420502,47.477341 100.112747,47.880249 103.660271,47.544659 
z"/>
<path fill="#8001F6" opacity="1.000000" stroke="none" 
	d="
M104.702766,132.772949 
	C99.958939,135.672882 95.090210,138.291946 89.876289,141.076721 
	C88.787956,140.611557 88.044823,139.980682 87.181519,139.079681 
	C91.749084,135.897324 96.436806,132.985077 101.480637,130.056168 
	C102.750458,130.857025 103.664169,131.674561 104.702766,132.772949 
z"/>
<path fill="#C601F2" opacity="1.000000" stroke="none" 
	d="
M128.639740,83.963493 
	C123.798019,87.357811 118.625076,90.595711 113.078400,93.868156 
	C114.322052,86.707924 119.959297,83.060646 128.639740,83.963493 
z"/>
<path fill="#C601F2" opacity="1.000000" stroke="none" 
	d="
M65.713509,117.461182 
	C70.009109,114.054367 74.419106,110.910538 78.907822,107.438904 
	C79.897308,107.927361 80.808067,108.743607 81.820137,110.190796 
	C78.474594,115.903282 73.513321,118.379066 67.568878,119.163162 
	C66.988548,118.683495 66.408226,118.203827 65.713509,117.461182 
z"/>
<path fill="#BD01F5" opacity="1.000000" stroke="none" 
	d="
M67.713509,119.449249 
	C73.513321,118.379066 78.474594,115.903282 81.946594,110.475082 
	C83.363342,111.487732 84.754959,112.847046 86.014771,114.623123 
	C81.114487,117.745819 76.346008,120.451752 71.577530,123.157684 
	C70.337730,122.016907 69.097931,120.876129 67.713509,119.449249 
z"/>
<path fill="#AC00F6" opacity="1.000000" stroke="none" 
	d="
M71.698021,123.441238 
	C76.346008,120.451752 81.114487,117.745819 86.235001,114.879639 
	C87.596260,115.638985 88.605499,116.558578 89.388977,117.823471 
	C84.284088,120.838287 79.404968,123.507812 74.525856,126.177338 
	C73.623405,125.359833 72.720963,124.542313 71.698021,123.441238 
z"/>
<path fill="#8A01F7" opacity="1.000000" stroke="none" 
	d="
M93.830124,121.863663 
	C89.424301,125.126137 84.879089,128.112656 79.937599,131.158020 
	C78.967499,130.730759 78.393677,130.244629 78.026955,129.311661 
	C80.078186,127.744385 82.049698,126.786568 83.736534,125.465309 
	C86.253029,123.494186 88.568832,121.266846 90.970024,119.148521 
	C91.876923,119.961578 92.783829,120.774635 93.830124,121.863663 
z"/>
<path fill="#9A01F6" opacity="1.000000" stroke="none" 
	d="
M105.366776,147.162231 
	C107.232582,144.975342 109.487495,142.893799 111.840385,140.506958 
	C114.091301,142.207733 116.244240,144.213806 119.521561,147.267578 
	C114.040192,147.267578 109.898033,147.267578 105.366776,147.162231 
z"/>
<path fill="#9A01F6" opacity="1.000000" stroke="none" 
	d="
M90.850006,118.898285 
	C88.568832,121.266846 86.253029,123.494186 83.736534,125.465309 
	C82.049698,126.786568 80.078186,127.744385 77.911415,129.049194 
	C76.661606,128.402725 75.734436,127.571877 74.666565,126.459183 
	C79.404968,123.507812 84.284088,120.838287 89.496376,118.099258 
	C90.129692,118.235847 90.429832,118.441948 90.850006,118.898285 
z"/>
<path fill="#DB01EE" opacity="1.000000" stroke="none" 
	d="
M46.672352,96.756645 
	C46.970249,96.895172 46.977139,97.187805 46.979622,97.922302 
	C46.777260,97.879684 46.579304,97.395218 46.672352,96.756645 
z"/>
</svg>